<?xml version="1.0" standalone="no"?>
<!DOCTYPE svg PUBLIC "-//W3C//DTD SVG 20010904//EN"
 "http://www.w3.org/TR/2001/REC-SVG-20010904/DTD/svg10.dtd">
<svg version="1.0" xmlns="http://www.w3.org/2000/svg"
 width="1280.000000pt" height="1206.000000pt" viewBox="0 0 1280.000000 1206.000000"
 preserveAspectRatio="xMidYMid meet">
<g transform="translate(0.000000,1206.000000) scale(0.100000,-0.100000)"
fill="#000000" stroke="none">
<path d="M3878 11856 c-66 -70 -125 -122 -154 -137 -43 -22 -49 -29 -59 -74
-23 -105 -96 -211 -347 -507 -201 -238 -242 -283 -255 -275 -15 9 19 222 62
382 63 239 131 418 187 487 38 48 8 45 -35 -4 -52 -57 -80 -73 -107 -58 -22
12 -35 64 -26 112 5 27 4 29 -4 10 -5 -12 -9 -86 -8 -165 2 -159 -10 -230
-102 -597 -73 -290 -99 -332 -451 -757 -113 -137 -241 -293 -286 -348 -138
-171 -193 -210 -201 -145 -2 14 -7 29 -12 33 -4 5 -55 14 -112 21 -115 15
-148 29 -268 120 -157 119 -448 391 -633 593 -187 204 -266 301 -339 416 -194
304 -314 461 -490 640 -84 85 -112 108 -130 105 -16 -2 -24 -11 -26 -30 -3
-21 13 -42 85 -115 142 -142 373 -479 373 -543 0 -47 134 -229 350 -475 118
-134 222 -245 485 -515 255 -262 375 -399 449 -512 34 -51 37 -60 31 -102 -6
-40 -2 -56 39 -143 63 -137 83 -225 107 -473 11 -118 40 -370 64 -560 72 -558
86 -777 66 -974 -13 -126 -32 -175 -78 -196 -39 -18 -40 -30 -13 -123 25 -91
57 -247 75 -377 57 -414 66 -1053 20 -1460 -26 -229 -171 -1039 -216 -1209
-22 -82 -31 -102 -54 -121 -21 -18 -47 6 -87 83 -40 73 -89 101 -142 81 -23
-9 -20 -34 9 -64 39 -40 48 -117 42 -330 -8 -227 -30 -447 -62 -603 -28 -142
-88 -273 -191 -417 -78 -111 -135 -213 -159 -289 -18 -54 -53 -101 -76 -101
-6 0 -24 14 -39 30 -34 36 -40 36 -90 8 l-39 -23 -25 25 c-14 14 -56 97 -94
185 -39 88 -113 256 -167 373 l-96 213 137 142 c75 78 152 165 170 192 39 58
59 132 74 267 22 210 14 268 -79 548 -116 346 -160 564 -168 825 -8 251 28
464 114 677 l38 93 -1 165 c-1 91 -6 183 -12 205 l-10 40 -1 -51 c-2 -84 -29
-217 -64 -316 -48 -132 -198 -448 -213 -448 -7 0 -17 24 -24 58 -23 122 -62
268 -125 467 -66 211 -98 326 -110 402 -7 45 -19 62 -28 39 -6 -16 12 -116 57
-315 68 -298 80 -412 43 -419 -26 -5 -50 20 -113 120 -31 49 -59 87 -61 84 -3
-3 35 -67 85 -143 116 -176 134 -218 137 -310 2 -53 8 -81 23 -105 101 -159
154 -318 207 -623 9 -49 38 -168 66 -262 80 -279 99 -369 106 -490 7 -130 -5
-208 -48 -301 -82 -182 -306 -392 -416 -392 -60 0 -103 74 -152 260 -40 152
-50 215 -61 400 -10 163 -18 220 -30 220 -15 0 -22 -49 -30 -235 -4 -104 -13
-202 -19 -218 -11 -27 -32 -40 -84 -52 -19 -4 -33 -17 -44 -40 -16 -33 -16
-38 2 -88 10 -28 35 -83 56 -122 21 -38 42 -89 48 -112 13 -47 78 -141 224
-323 137 -169 213 -289 239 -375 12 -38 41 -116 65 -172 50 -118 53 -151 21
-258 -29 -99 -23 -116 112 -320 108 -161 170 -270 170 -296 0 -7 36 -90 79
-184 125 -270 204 -520 251 -800 24 -148 48 -230 71 -251 16 -14 21 -14 60 6
23 12 65 44 93 70 62 58 123 100 146 100 9 0 25 -9 35 -20 44 -48 102 -8 129
91 21 72 48 104 75 90 29 -16 65 -69 138 -207 86 -160 112 -201 153 -239 l32
-30 23 27 c61 71 35 282 -75 617 -87 265 -107 401 -116 801 -7 283 -1 327 67
462 44 89 129 237 190 330 21 33 40 77 43 103 12 75 40 146 150 374 57 119
126 263 153 321 27 58 83 161 125 230 101 167 137 242 144 293 7 54 -9 76 -61
84 -22 3 -46 10 -52 16 -41 32 11 121 160 274 109 112 196 182 332 268 248
156 633 310 935 371 114 24 141 26 295 21 178 -5 233 -14 488 -78 105 -26 130
-36 137 -53 5 -12 14 -79 20 -151 40 -456 108 -788 186 -907 13 -21 41 -49 62
-62 57 -36 95 -80 138 -158 65 -118 113 -133 230 -68 40 22 80 40 89 40 9 0
40 -22 68 -48 29 -27 60 -52 70 -55 27 -10 94 23 157 77 160 136 507 577 645
820 49 85 69 96 152 78 69 -14 120 -52 151 -112 27 -55 28 -100 2 -175 -11
-32 -20 -67 -20 -78 0 -12 22 -42 48 -67 73 -70 193 -122 135 -57 -64 69 -57
141 19 214 57 55 115 64 263 42 100 -14 130 -7 161 42 49 78 112 77 152 -1 32
-64 29 -124 -8 -179 -53 -78 -31 -171 54 -229 52 -35 156 -57 156 -33 0 5 -27
42 -60 81 -33 39 -60 77 -60 84 0 7 9 21 20 31 31 28 100 23 210 -15 87 -30
108 -34 255 -40 222 -9 211 -2 530 -305 338 -321 485 -447 645 -555 295 -198
493 -398 628 -635 22 -38 51 -81 65 -93 25 -23 27 -24 115 -12 241 31 753 -72
955 -192 62 -37 71 -40 116 -34 27 3 93 20 147 36 180 53 416 80 713 80 l134
0 -21 23 c-13 14 -22 36 -22 55 l0 32 -64 0 c-35 0 -126 -6 -202 -14 -532 -55
-751 -45 -1046 50 -225 73 -410 177 -452 255 -19 36 -19 36 0 70 25 43 147
131 219 158 91 34 206 41 835 51 333 5 625 14 650 19 25 6 48 10 53 11 4 0 7
8 7 19 0 41 21 45 164 31 137 -12 188 -8 167 13 -15 15 -289 13 -631 -3 -266
-13 -434 -7 -664 21 -266 33 -467 23 -636 -31 -36 -12 -118 -48 -182 -81 -273
-138 -347 -123 -658 137 -310 259 -413 347 -535 458 -154 140 -315 297 -315
307 0 9 69 58 117 82 73 38 216 68 501 106 480 64 684 79 855 61 127 -13 148
-20 199 -65 42 -38 132 -86 265 -141 143 -59 300 -143 356 -190 46 -40 122
-74 165 -74 32 0 115 -57 163 -112 28 -32 53 -57 56 -54 9 9 -79 165 -118 210
-54 61 -160 120 -441 247 -132 60 -254 117 -272 128 -71 44 -97 99 -65 137 19
23 72 48 176 83 107 35 166 64 265 127 229 147 573 303 834 379 49 14 136 31
193 38 127 14 105 24 -75 34 -217 11 -350 -34 -949 -317 -505 -239 -514 -241
-1082 -260 -679 -21 -699 -23 -1037 -92 -299 -60 -291 -61 -401 44 -95 89
-124 146 -134 262 -5 47 -14 92 -21 101 -7 8 -27 15 -45 15 -18 0 -58 13 -89
30 -72 37 -103 46 -261 70 -167 27 -198 35 -235 66 -78 66 -23 161 282 484
385 408 720 847 981 1288 150 252 186 341 248 617 59 264 63 341 24 462 -46
148 -145 275 -223 289 -55 9 -82 30 -105 82 -28 64 -27 148 1 194 12 20 20 43
16 51 -8 21 7 45 65 112 27 31 51 64 54 75 3 10 -6 39 -19 64 -30 55 -30 98
-3 212 22 94 20 126 -12 198 -14 33 -18 56 -13 85 5 32 2 45 -16 68 -18 23
-21 38 -18 92 l3 64 -67 1 c-80 1 -110 20 -149 90 -42 76 -52 144 -51 321 1
137 9 225 39 425 l6 34 -34 -25 c-106 -79 -171 -120 -183 -116 -8 3 -24 35
-36 71 -12 36 -25 68 -30 71 -14 9 -31 -22 -120 -218 l-88 -192 -123 -8 c-68
-4 -213 -6 -322 -5 l-199 3 -24 28 c-17 19 -24 40 -24 68 0 51 -23 52 -71 3
-45 -48 -90 -69 -172 -83 -38 -7 -101 -27 -141 -46 -98 -46 -179 -58 -344 -53
-183 5 -213 18 -278 118 -49 76 -118 218 -174 358 -18 46 -36 80 -40 75 -4 -4
-17 -38 -29 -75 -44 -134 -87 -151 -155 -61 -21 29 -43 50 -48 47 -14 -9 -2
-103 28 -221 82 -323 83 -544 3 -710 -40 -84 -70 -107 -130 -100 l-46 6 -16
-187 c-19 -208 -39 -317 -68 -378 -25 -52 -24 -62 6 -106 32 -47 31 -54 -5
-73 -20 -10 -30 -23 -30 -39 0 -27 41 -85 95 -136 52 -49 61 -77 35 -105 -11
-12 -44 -32 -73 -45 -166 -73 -195 -90 -260 -159 -111 -118 -500 -683 -569
-827 -48 -99 -51 -148 -18 -259 37 -127 30 -175 -59 -448 -115 -351 -138 -449
-190 -816 -12 -84 -24 -139 -34 -148 -18 -19 -43 -12 -207 59 -207 90 -278
100 -500 73 -222 -28 -399 -69 -559 -132 -62 -24 -123 -43 -134 -41 -16 2 -23
14 -32 51 -7 35 -17 51 -35 60 -14 7 -36 33 -50 59 -34 62 -58 87 -93 96 -47
12 -54 32 -34 94 10 29 87 283 172 564 84 280 183 604 220 718 36 114 64 213
62 220 -6 15 -132 -246 -250 -519 -131 -303 -157 -368 -249 -615 -127 -339
-201 -505 -275 -616 -162 -243 -483 -634 -520 -634 -20 0 -42 29 -53 69 -47
176 -77 1207 -50 1737 10 208 26 286 74 383 101 199 101 312 2 430 -92 110
-110 189 -161 704 -30 310 -60 667 -80 977 -18 270 -37 430 -65 548 -11 46
-20 104 -20 130 0 43 3 49 62 103 l62 58 -13 43 c-26 86 -22 98 39 133 30 17
56 38 58 47 2 9 -8 44 -22 79 -15 34 -26 70 -26 79 0 28 88 154 204 295 164
198 255 318 357 466 85 123 212 291 434 574 101 129 291 412 362 540 63 113
155 296 151 300 -2 2 -51 -48 -110 -109z"/>
<path d="M3712 11830 c0 -14 2 -19 5 -12 2 6 2 18 0 25 -3 6 -5 1 -5 -13z"/>
<path d="M1163 2498 c-6 -7 -16 -32 -22 -55 -19 -70 -95 -109 -123 -63 -27 42
-38 10 -17 -49 6 -18 18 -31 27 -31 25 0 128 85 158 129 14 22 24 48 22 58 -4
22 -31 29 -45 11z"/>
</g>
</svg>
